<?xml version="1.0" standalone="no"?>
<!DOCTYPE svg>
<svg version="1.0" xmlns="http://www.w3.org/2000/svg"
 width="315.000000pt" height="225.000000pt" viewBox="0 0 315.000000 225.000000"
 preserveAspectRatio="xMidYMid meet">
<g transform="translate(0.000000,225.000000) scale(0.100000,-0.100000)"
fill="#fa755a" stroke="none">
<path d="M960 2163 c-37 -14 -74 -49 -91 -87 -15 -32 -19 -66 -19 -158 l0
-118 -165 0 c-233 0 -259 -13 -253 -133 l3 -62 88 -3 c60 -2 87 -7 87 -15 1
-7 16 -325 34 -707 37 -765 32 -733 103 -787 l36 -28 641 -3 c432 -2 653 0
678 8 45 13 94 67 106 117 6 21 22 299 36 618 15 319 29 628 33 688 l6 107 89
0 88 0 0 69 c0 59 -4 74 -24 98 l-24 28 -185 3 -185 4 -4 132 c-3 128 -4 134
-31 169 -53 69 -34 67 -559 66 -260 0 -480 -3 -488 -6z m880 -273 l0 -90 -395
0 -395 0 0 90 0 90 395 0 395 0 0 -90z"/>
</g>
</svg>
