<svg width="240" height="130" viewBox="0 0 240 130" fill="none" xmlns="http://www.w3.org/2000/svg">
<line y1="110.095" x2="239.729" y2="110.095" stroke="#B3BAC4"/>
<rect x="61.8333" y="14.6666" width="115.833" height="27" fill="#ACCDEF" stroke="#B3BAC4"/>
<path d="M62.3333 15.1666H63.4166H73.1666H81.8333H91.5833H100.25H110H118.667H128.417H137.083H146.833H155.5H165.25H173.917H177.167V41.1666H175H165.25H156.583H146.833H138.167H128.417H119.75H110H100.25H91.5833H82.9166H73.1666H62.3333V15.1666Z" fill="#F5F6F8"/>
<path d="M75.3333 41.1666L65.5833 15.1666H75.3333L85.0833 41.1666H75.3333Z" fill="#B3BAC4"/>
<path d="M93.75 41.1666L84 15.1666H93.75L102.417 41.1666H93.75Z" fill="#B3BAC4"/>
<path d="M112.167 41.1666L102.417 15.1666H112.167L121.917 41.1666H112.167Z" fill="#B3BAC4"/>
<path d="M130.583 41.1666L120.833 15.1666H130.583L140.333 41.1666H130.583Z" fill="#B3BAC4"/>
<path d="M149 41.1666L139.25 15.1666H149L158.75 41.1666H149Z" fill="#B3BAC4"/>
<path d="M167.417 41.1666L157.667 15.1666H167.417L177.167 41.1666H167.417Z" fill="#B3BAC4"/>
<rect x="61.8333" y="64.5" width="115.833" height="27" fill="#B3BAC4" stroke="#B3BAC4"/>
<path d="M62.3333 65H63.4166H73.1666H81.8333H91.5833H100.25H110H118.667H128.417H137.083H146.833H155.5H165.25H173.917H177.167V91H175H165.25H156.583H146.833H138.167H128.417H119.75H110H100.25H91.5833H82.9166H73.1666H62.3333V65Z" fill="#B3BAC4"/>
<path d="M75.3333 91L65.5833 65H75.3333L85.0833 91H75.3333Z" fill="#F5F6F8"/>
<path d="M93.75 91L84 65H93.75L102.417 91H93.75Z" fill="#F5F6F8"/>
<path d="M112.167 91L102.417 65H112.167L121.917 91H112.167Z" fill="#F5F6F8"/>
<path d="M130.583 91L120.833 65H130.583L140.333 91H130.583Z" fill="#F5F6F8"/>
<path d="M149 91L139.25 65H149L158.75 91H149Z" fill="#F5F6F8"/>
<path d="M167.417 91L157.667 65H167.417L177.167 91H167.417Z" fill="#F5F6F8"/>
<rect x="168.5" width="13" height="130" rx="6.5" fill="#B3BAC4"/>
<rect x="58" width="13" height="130" rx="6.5" fill="#B3BAC4"/>
</svg>
