<svg width="689" height="300" viewBox="0 0 689 300" fill="none" xmlns="http://www.w3.org/2000/svg">
<g opacity="0.25">
<path d="M219.899 235.615H184.779V296.013H124.516V235.615H0V192.757L127.909 4.58472H184.779V187.774H219.899V235.615ZM124.516 187.774V138.339C124.516 130.1 124.849 118.14 125.514 102.458C126.179 86.7774 126.711 77.6744 127.111 75.1495H125.514C120.592 86.0465 114.672 96.6777 107.755 107.043L54.2764 187.774H124.516Z" fill="#D8D8D8"/>
<path d="M445.91 150.299C445.91 201.196 437.529 238.87 420.767 263.322C404.138 287.774 378.464 300 343.743 300C310.086 300 284.677 287.375 267.516 262.126C250.488 236.877 241.974 199.601 241.974 150.299C241.974 98.8704 250.289 60.9967 266.918 36.6777C283.546 12.2259 309.155 0 343.743 0C377.399 0 402.808 12.7575 419.969 38.2724C437.263 63.7874 445.91 101.13 445.91 150.299ZM303.235 150.299C303.235 186.047 306.295 211.694 312.414 227.243C318.666 242.658 329.109 250.365 343.743 250.365C358.11 250.365 368.486 242.525 374.872 226.844C381.257 211.163 384.45 185.648 384.45 150.299C384.45 114.551 381.191 88.9036 374.672 73.3555C368.287 57.6744 357.977 49.8339 343.743 49.8339C329.242 49.8339 318.866 57.6744 312.613 73.3555C306.361 88.9036 303.235 114.551 303.235 150.299Z" fill="#D8D8D8"/>
<path d="M688.283 235.615H653.163V296.013H592.901V235.615H468.384V192.757L596.293 4.58472H653.163V187.774H688.283V235.615ZM592.901 187.774V138.339C592.901 130.1 593.233 118.14 593.898 102.458C594.563 86.7774 595.096 77.6744 595.495 75.1495H593.898C588.976 86.0465 583.056 96.6777 576.139 107.043L522.66 187.774H592.901Z" fill="#D8D8D8"/>
</g>
<line x1="160" y1="269.646" x2="528.814" y2="269.646" stroke="#B3BAC4"/>
<rect x="255.397" y="122.83" width="177.667" height="41" fill="#ACCDEF" stroke="#B3BAC4"/>
<path d="M255.897 123.332H257.564H272.564H285.897H300.897H314.23H329.23H342.564H357.564H370.897H385.897H399.23H414.23H427.564H432.564V163.332H429.23H414.23H400.897H385.897H372.564H357.564H344.23H329.23H314.23H300.897H287.564H272.564H255.897V123.332Z" fill="#F5F6F8"/>
<path d="M275.897 163.33L260.897 123.33H275.897L290.897 163.33H275.897Z" fill="#B3BAC4"/>
<path d="M304.231 163.33L289.231 123.33H304.231L317.564 163.33H304.231Z" fill="#B3BAC4"/>
<path d="M332.564 163.33L317.564 123.33H332.564L347.564 163.33H332.564Z" fill="#B3BAC4"/>
<path d="M360.897 163.33L345.897 123.33H360.897L375.897 163.33H360.897Z" fill="#B3BAC4"/>
<path d="M389.231 163.33L374.231 123.33H389.231L404.231 163.33H389.231Z" fill="#B3BAC4"/>
<path d="M417.564 163.33L402.564 123.33H417.564L432.564 163.33H417.564Z" fill="#B3BAC4"/>
<rect x="255.397" y="199.5" width="177.667" height="41" fill="#B3BAC4" stroke="#B3BAC4"/>
<path d="M255.897 200H257.564H272.564H285.897H300.897H314.23H329.23H342.564H357.564H370.897H385.897H399.23H414.23H427.564H432.564V240H429.23H414.23H400.897H385.897H372.564H357.564H344.23H329.23H314.23H300.897H287.564H272.564H255.897V200Z" fill="#B3BAC4"/>
<path d="M275.897 240L260.897 200H275.897L290.897 240H275.897Z" fill="#F5F6F8"/>
<path d="M304.231 240L289.231 200H304.231L317.564 240H304.231Z" fill="#F5F6F8"/>
<path d="M332.564 240L317.564 200H332.564L347.564 240H332.564Z" fill="#F5F6F8"/>
<path d="M360.897 240L345.897 200H360.897L375.897 240H360.897Z" fill="#F5F6F8"/>
<path d="M389.231 240L374.231 200H389.231L404.231 240H389.231Z" fill="#F5F6F8"/>
<path d="M417.564 240L402.564 200H417.564L432.564 240H417.564Z" fill="#F5F6F8"/>
<rect x="419.231" y="100" width="20" height="200" rx="10" fill="#B3BAC4"/>
<rect x="249.231" y="100" width="20" height="200" rx="10" fill="#B3BAC4"/>
</svg>
