<svg width="23" height="20" viewBox="0 0 23 20" fill="none" xmlns="http://www.w3.org/2000/svg">
<path d="M21.2813 13.9182H6.74268L7.47266 12.4908L19.6016 12.4697C20.0117 12.4697 20.3633 12.1885 20.4365 11.7994L22.1162 2.77366C22.1602 2.53694 22.0942 2.29319 21.9331 2.10803C21.8535 2.01691 21.7541 1.94351 21.642 1.89292C21.5299 1.84233 21.4076 1.81576 21.2837 1.81506L5.854 1.76584L5.72217 1.17053C5.63916 0.790845 5.28272 0.514282 4.87744 0.514282H1.10547C0.876901 0.514282 0.657694 0.601448 0.496073 0.756605C0.334451 0.911763 0.243652 1.1222 0.243652 1.34163C0.243652 1.56105 0.334451 1.77149 0.496073 1.92665C0.657694 2.0818 0.876901 2.16897 1.10547 2.16897H4.1792L4.75537 4.79866L6.17383 11.3916L4.34766 14.2533C4.25282 14.3762 4.1957 14.5221 4.18276 14.6746C4.16981 14.827 4.20156 14.9798 4.27441 15.1158C4.4209 15.3947 4.71631 15.5705 5.04346 15.5705H6.57666C6.2498 15.9873 6.07325 16.4949 6.07373 17.0166C6.07373 18.3432 7.19678 19.4213 8.57861 19.4213C9.96045 19.4213 11.0835 18.3432 11.0835 17.0166C11.0835 16.494 10.9028 15.9854 10.5806 15.5705H14.5137C14.1868 15.9873 14.0103 16.4949 14.0107 17.0166C14.0107 18.3432 15.1338 19.4213 16.5156 19.4213C17.8975 19.4213 19.0205 18.3432 19.0205 17.0166C19.0205 16.494 18.8398 15.9854 18.5176 15.5705H21.2837C21.7573 15.5705 22.1455 15.2002 22.1455 14.7432C22.1441 14.524 22.0524 14.3142 21.8905 14.1597C21.7286 14.0051 21.5096 13.9183 21.2813 13.9182ZM6.21289 3.39709L20.2705 3.44163L18.8936 10.8432L7.85107 10.8619L6.21289 3.39709ZM8.57861 17.7572C8.15381 17.7572 7.80713 17.4244 7.80713 17.0166C7.80713 16.6088 8.15381 16.276 8.57861 16.276C9.00342 16.276 9.3501 16.6088 9.3501 17.0166C9.3501 17.2131 9.26882 17.4014 9.12414 17.5403C8.97945 17.6792 8.78322 17.7572 8.57861 17.7572ZM16.5156 17.7572C16.0908 17.7572 15.7441 17.4244 15.7441 17.0166C15.7441 16.6088 16.0908 16.276 16.5156 16.276C16.9404 16.276 17.2871 16.6088 17.2871 17.0166C17.2871 17.2131 17.2058 17.4014 17.0611 17.5403C16.9165 17.6792 16.7202 17.7572 16.5156 17.7572Z" fill="#4C516E"/>
</svg>
