<svg width="153" height="154" viewBox="0 0 153 154" fill="none" xmlns="http://www.w3.org/2000/svg">
<path d="M152.274 0.547668V46.5104L46.2967 153.302H0.907425L152.274 0.547668Z" fill="white"/>
<path opacity="0.7" d="M66.4455 118.565L63.6935 118.584C63.4522 119.014 63.1578 119.406 62.8104 119.758C62.1745 120.402 61.4448 120.843 60.6214 121.079C59.7914 121.309 58.9532 121.315 58.107 121.096C57.2607 120.864 56.4987 120.414 55.8211 119.745C55.1434 119.076 54.6863 118.324 54.4498 117.487C54.2131 116.637 54.2075 115.799 54.433 114.973C54.6519 114.14 55.0792 113.401 55.7151 112.757C56.3576 112.105 57.0938 111.665 57.9239 111.435C58.7473 111.199 59.5788 111.193 60.4185 111.418C61.2582 111.644 62.0201 112.094 62.7044 112.769C63.3688 113.425 63.8225 114.161 64.0655 114.978C64.3085 115.795 64.3304 116.609 64.1313 117.423L67.6058 117.39L66.4455 118.565ZM56.7356 118.818C57.287 119.362 57.8801 119.731 58.515 119.925C59.1564 120.112 59.7802 120.125 60.3863 119.962C60.9989 119.793 61.5446 119.466 62.0231 118.981C62.5017 118.496 62.8181 117.949 62.9725 117.341C63.1334 116.726 63.1127 116.103 62.9105 115.471C62.7149 114.832 62.3413 114.24 61.7899 113.696C61.2319 113.145 60.6355 112.78 60.0007 112.599C59.3658 112.406 58.7453 112.39 58.1392 112.552C57.5331 112.715 56.9875 113.042 56.5024 113.533C56.0173 114.025 55.6975 114.575 55.5432 115.183C55.3889 115.791 55.4095 116.415 55.6052 117.054C55.8007 117.679 56.1775 118.268 56.7356 118.818ZM61.3122 107.244L65.7069 111.58C66.3247 112.19 66.9306 112.493 67.5246 112.489C68.1251 112.478 68.6908 112.204 69.2218 111.666C69.7463 111.134 70.0065 110.572 70.0026 109.978C70.0052 109.377 69.6975 108.772 69.0797 108.162L64.685 103.826L65.5799 102.919L69.9646 107.246C70.5426 107.816 70.9161 108.414 71.0853 109.04C71.2478 109.659 71.2287 110.263 71.0281 110.852C70.8339 111.434 70.4943 111.971 70.0092 112.463C69.5241 112.954 68.9885 113.304 68.4026 113.513C67.8231 113.714 67.2227 113.738 66.6013 113.584C65.9798 113.417 65.38 113.048 64.8021 112.477L60.4174 108.151L61.3122 107.244ZM67.9675 100.499L74.9132 107.353L74.0184 108.26L67.0726 101.406L67.9675 100.499ZM72.6261 102.715C71.9485 102.046 71.4914 101.293 71.2548 100.457C71.0116 99.6136 70.9961 98.7788 71.2084 97.9524C71.4273 97.1194 71.8546 96.3806 72.4905 95.7362C73.2379 94.9789 74.0728 94.4981 74.9955 94.294C75.9181 94.0898 76.8427 94.1893 77.7694 94.5923L76.6975 95.6785C76.0889 95.4582 75.4913 95.4192 74.9049 95.5617C74.325 95.6976 73.786 96.018 73.2878 96.5229C72.8092 97.0079 72.4927 97.5545 72.3384 98.1627C72.1841 98.7709 72.208 99.3911 72.4102 100.023C72.6058 100.649 72.9826 101.237 73.5406 101.788C74.092 102.332 74.6852 102.701 75.32 102.895C75.9483 103.082 76.5654 103.094 77.1715 102.932C77.7776 102.769 78.32 102.446 78.7985 101.961C79.2967 101.456 79.6132 100.916 79.748 100.341C79.8827 99.7525 79.8358 99.1555 79.6074 98.5498L80.6792 97.4636C81.0879 98.3783 81.1963 99.2982 81.0045 100.223C80.806 101.142 80.3331 101.98 79.5858 102.738C78.9499 103.382 78.2202 103.822 77.3968 104.059C76.5733 104.282 75.7418 104.281 74.9021 104.056C74.0624 103.83 73.3037 103.383 72.6261 102.715ZM87.7512 94.3431L81.7601 94.0761L84.929 97.2031L84.0342 98.1099L77.0884 91.2561L77.9833 90.3492L81.202 93.5254L80.8153 87.4793L81.9461 86.3333L82.3166 92.9141L88.9213 93.1572L87.7512 94.3431ZM94.7853 87.3542C94.3329 87.8126 93.8468 88.1458 93.3268 88.3539C92.8067 88.5487 92.3022 88.6082 91.8133 88.5323C91.3177 88.4498 90.8774 88.225 90.4921 87.858L91.446 86.8914C91.8043 87.1794 92.2111 87.3185 92.6664 87.3089C93.1216 87.2861 93.5722 87.0488 94.0179 86.597C94.444 86.1652 94.6721 85.7215 94.702 85.2659C94.7319 84.7971 94.5775 84.3956 94.2386 84.0612C93.9729 83.799 93.6849 83.659 93.3746 83.6413C93.0643 83.6236 92.7578 83.6817 92.4551 83.8157C92.1524 83.9497 91.7676 84.1536 91.3009 84.4273C90.7289 84.7677 90.2455 85.0184 89.8506 85.1794C89.4623 85.3338 89.0435 85.3861 88.5944 85.3363C88.1452 85.2733 87.7047 85.0287 87.2728 84.6026C86.8942 84.2289 86.6537 83.8016 86.5515 83.3205C86.4493 82.8393 86.4889 82.3474 86.6704 81.8446C86.8584 81.3352 87.1753 80.8546 87.6211 80.4028C88.2635 79.7518 88.9507 79.3809 89.6827 79.2902C90.4212 79.1929 91.0858 79.3832 91.6763 79.861L90.693 80.8575C90.3945 80.6285 90.0243 80.5386 89.5824 80.5877C89.1339 80.6303 88.7097 80.8542 88.3098 81.2595C87.9362 81.6382 87.731 82.0454 87.6943 82.4813C87.651 82.9105 87.8053 83.2989 88.1574 83.6463C88.4099 83.8955 88.6847 84.0289 88.9818 84.0467C89.2855 84.0579 89.5821 84.0031 89.8717 83.8824C90.1612 83.7485 90.5459 83.5446 91.0259 83.2709C91.6044 82.937 92.0945 82.6929 92.496 82.5384C92.891 82.3774 93.3163 82.325 93.7721 82.3814C94.2212 82.4312 94.665 82.6724 95.1034 83.1051C95.4423 83.4394 95.6726 83.8438 95.7946 84.3182C95.9166 84.7925 95.8968 85.2976 95.7354 85.8332C95.574 86.3689 95.2573 86.8759 94.7853 87.3542ZM96.6484 71.4338L103.594 78.2876L102.699 79.1945L99.5503 76.0871L96.0595 79.6248L99.2085 82.7321L98.3137 83.639L91.3679 76.7851L92.2627 75.8783L95.3121 78.8873L98.8029 75.3496L95.7536 72.3406L96.6484 71.4338ZM108.299 73.6591C107.663 74.3035 106.934 74.7439 106.11 74.9804C105.28 75.2103 104.442 75.2159 103.596 74.9971C102.749 74.7652 101.987 74.3149 101.31 73.6462C100.632 72.9775 100.175 72.2249 99.9386 71.3883C99.702 70.5385 99.6964 69.7004 99.9219 68.8739C100.141 68.0408 100.568 67.3021 101.204 66.6577C101.846 66.0066 102.583 65.5662 103.413 65.3362C104.236 65.0998 105.068 65.0942 105.907 65.3196C106.747 65.545 107.509 65.9953 108.193 66.6706C108.877 67.3458 109.338 68.1017 109.575 68.9383C109.811 69.7749 109.82 70.6097 109.601 71.4427C109.376 72.2692 108.942 73.008 108.299 73.6591ZM107.512 72.8822C107.991 72.3972 108.307 71.8507 108.461 71.2424C108.622 70.6276 108.601 70.004 108.399 69.3718C108.204 68.7329 107.83 68.1414 107.279 67.5973C106.721 67.0466 106.124 66.681 105.489 66.5005C104.855 66.3067 104.234 66.291 103.628 66.4535C103.022 66.6159 102.476 66.9429 101.991 67.4345C101.506 67.9262 101.186 68.4761 101.032 69.0843C100.878 69.6925 100.898 70.316 101.094 70.9549C101.29 71.5806 101.666 72.1688 102.224 72.7194C102.776 73.2635 103.369 73.6325 104.004 73.8263C104.645 74.0134 105.269 74.0257 105.875 73.8633C106.488 73.6942 107.033 73.3672 107.512 72.8822ZM112.522 59.4136C113.1 59.984 113.385 60.6585 113.377 61.4374C113.369 62.203 112.965 62.9911 112.165 63.8016L110.847 65.1369L113.747 67.9984L112.852 68.9052L105.907 62.0514L108.119 59.8092C108.893 59.0253 109.669 58.6175 110.447 58.586C111.232 58.5477 111.924 58.8236 112.522 59.4136ZM111.418 63.0641C111.916 62.5592 112.173 62.079 112.19 61.6235C112.207 61.168 112.013 60.7403 111.607 60.3404C110.75 59.4947 109.837 59.5635 108.867 60.5467L107.549 61.8821L110.1 64.3994L111.418 63.0641Z" fill="#022E73"/>
</svg>
