<svg width="40" height="40" viewBox="0 0 40 40" fill="none" xmlns="http://www.w3.org/2000/svg">
<path fill-rule="evenodd" clip-rule="evenodd" d="M0 4C0 1.79086 1.79086 0 4 0H36C38.2091 0 40 1.79086 40 4V36C40 38.2091 38.2091 40 36 40H4C1.79086 40 0 38.2091 0 36V4Z" fill="white"/>
<path d="M0.5 4C0.5 2.067 2.067 0.5 4 0.5H36C37.933 0.5 39.5 2.067 39.5 4V36C39.5 37.933 37.933 39.5 36 39.5H4C2.067 39.5 0.5 37.933 0.5 36V4Z" stroke="#E4E4E4" stroke-opacity="0.6"/>
<path d="M19.0132 16.3909L16.8344 21.2198L14.6658 16.3909H11.8868V23.3265L8.7902 16.3909H6.44532L3.28271 23.5895H5.15429L5.84621 21.9829H9.38519L10.0884 23.5895H13.6615V18.2429L16.0321 23.5895H17.6438L20.0681 18.3357V23.5895H21.8438V16.3909H19.0132ZM6.51544 20.4279L7.57342 17.9118L8.67265 20.4279H6.51544Z" fill="#1976D2"/>
<path d="M33.5039 19.9103L36.7181 16.4094H34.432L32.3758 18.6409L30.3867 16.3909H23.3129V23.5905H30.1547L32.3119 21.2075L34.4155 23.6091H36.6944L33.5039 19.9103ZM29.2194 22.0788H25.0834V20.6548H29.041V19.2905H25.0834V17.9418L29.4494 17.9541L31.1951 19.9103L29.2194 22.0788Z" fill="#1976D2"/>
</svg>
