<svg width="40" height="40" viewBox="0 0 40 40" fill="none" xmlns="http://www.w3.org/2000/svg">
<path fill-rule="evenodd" clip-rule="evenodd" d="M0 4C0 1.79086 1.79086 0 4 0H36C38.2091 0 40 1.79086 40 4V36C40 38.2091 38.2091 40 36 40H4C1.79086 40 0 38.2091 0 36V4Z" fill="white"/>
<path d="M0.5 4C0.5 2.067 2.067 0.5 4 0.5H36C37.933 0.5 39.5 2.067 39.5 4V36C39.5 37.933 37.933 39.5 36 39.5H4C2.067 39.5 0.5 37.933 0.5 36V4Z" stroke="#E4E4E4" stroke-opacity="0.6"/>
<g clip-path="url(#clip0)">
<path fill-rule="evenodd" clip-rule="evenodd" d="M29 12.5H11C10.6022 12.5 10.2206 12.658 9.93934 12.9393C9.65804 13.2206 9.5 13.6022 9.5 14V26C9.5 26.3978 9.65804 26.7794 9.93934 27.0607C10.2206 27.342 10.6022 27.5 11 27.5H29C29.3978 27.5 29.7794 27.342 30.0607 27.0607C30.342 26.7794 30.5 26.3978 30.5 26V14C30.5 13.6022 30.342 13.2206 30.0607 12.9393C29.7794 12.658 29.3978 12.5 29 12.5ZM11 11C10.2044 11 9.44129 11.3161 8.87868 11.8787C8.31607 12.4413 8 13.2044 8 14V26C8 26.7956 8.31607 27.5587 8.87868 28.1213C9.44129 28.6839 10.2044 29 11 29H29C29.7956 29 30.5587 28.6839 31.1213 28.1213C31.6839 27.5587 32 26.7956 32 26V14C32 13.2044 31.6839 12.4413 31.1213 11.8787C30.5587 11.3161 29.7956 11 29 11H11Z" fill="#1066BC"/>
<path d="M14 21.5H12.5C11.6716 21.5 11 22.1716 11 23V24.5C11 25.3284 11.6716 26 12.5 26H14C14.8284 26 15.5 25.3284 15.5 24.5V23C15.5 22.1716 14.8284 21.5 14 21.5Z" fill="#1066BC"/>
<path d="M9.5 15.5H30.5V18.5H9.5V15.5Z" fill="#1066BC"/>
</g>
<defs>
<clipPath id="clip0">
<rect x="8" y="8" width="24" height="24" fill="white"/>
</clipPath>
</defs>
</svg>
