<svg width="40" height="40" viewBox="0 0 40 40" fill="none" xmlns="http://www.w3.org/2000/svg">
<path fill-rule="evenodd" clip-rule="evenodd" d="M0 4C0 1.79086 1.79086 0 4 0H36C38.2091 0 40 1.79086 40 4V36C40 38.2091 38.2091 40 36 40H4C1.79086 40 0 38.2091 0 36V4Z" fill="white"/>
<path d="M0.5 4C0.5 2.067 2.067 0.5 4 0.5H36C37.933 0.5 39.5 2.067 39.5 4V36C39.5 37.933 37.933 39.5 36 39.5H4C2.067 39.5 0.5 37.933 0.5 36V4Z" stroke="#E4E4E4" stroke-opacity="0.6"/>
<path d="M25.6415 10.9746H14.3594C9.39528 10.9746 5.33374 15.0362 5.33374 20.0003C5.33374 24.9644 9.39528 29.0259 14.3594 29.0259H25.6415C30.6056 29.0259 34.6671 24.9644 34.6671 20.0003C34.6671 15.0362 30.6056 10.9746 25.6415 10.9746Z" fill="#1565C0"/>
<path d="M14.3591 13.231C10.636 13.231 7.58984 16.2771 7.58984 20.0002C7.58984 23.7233 10.636 26.7694 14.3591 26.7694C18.0822 26.7694 21.1283 23.7233 21.1283 20.0002C21.1283 16.2771 18.0822 13.231 14.3591 13.231ZM9.84626 20.0002C9.84626 17.8566 11.3129 16.1643 13.2309 15.6002V24.2874C11.3129 23.8361 9.84626 22.1438 9.84626 20.0002ZM15.4873 24.4002V15.713C17.4052 16.1643 18.8719 17.9694 18.8719 20.113C18.8719 22.1438 17.4052 23.8361 15.4873 24.4002Z" fill="white"/>
</svg>
