<svg width="40" height="40" viewBox="0 0 40 40" fill="none" xmlns="http://www.w3.org/2000/svg">
<path fill-rule="evenodd" clip-rule="evenodd" d="M0 4C0 1.79086 1.79086 0 4 0H36C38.2091 0 40 1.79086 40 4V36C40 38.2091 38.2091 40 36 40H4C1.79086 40 0 38.2091 0 36V4Z" fill="white"/>
<path d="M0.5 4C0.5 2.067 2.067 0.5 4 0.5H36C37.933 0.5 39.5 2.067 39.5 4V36C39.5 37.933 37.933 39.5 36 39.5H4C2.067 39.5 0.5 37.933 0.5 36V4Z" stroke="#E4E4E4" stroke-opacity="0.6"/>
<path d="M8.20312 28.8893H12.5207C14.0388 28.8893 15.7941 27.4662 15.7941 25.616V11H11.6193C9.67427 11 8.20312 12.2332 8.20312 14.3684V28.8893Z" fill="#0F549D"/>
<path d="M16.7432 28.8893H21.0607C22.5788 28.8893 24.3346 27.4662 24.3346 25.616V11H20.1593C18.2137 11 16.7432 12.2332 16.7432 14.3684V28.8893Z" fill="#B41F36"/>
<path d="M25.4011 28.8893H29.7187C31.2368 28.8893 32.9926 27.4662 32.9926 25.616V11H28.8176C26.8726 11 25.4014 12.2332 25.4014 14.3684V28.8892H25.4011V28.8893Z" fill="#329947"/>
<path d="M8.18572 20.4629H7C7.33239 21.7915 8.89755 22.8357 10.6533 22.8357C12.2665 22.8357 14.4489 21.9338 14.4489 20.2258V17.1421H11.7445V20.2259C11.7445 21.1278 11.0327 21.8393 10.0362 21.8393C9.1352 21.839 8.32832 21.2698 8.18572 20.4629Z" fill="white"/>
<path d="M31.8581 21.0801C31.8581 21.7913 31.2419 22.3608 30.435 22.3608H24.4573V17.1418H30.435C31.1462 17.1418 31.7638 17.7589 31.7638 18.4707C31.7638 19.1819 31.1465 19.7992 30.435 19.7992C31.2419 19.7991 31.8581 20.3685 31.8581 21.0801ZM26.7342 19.5145H28.5848C29.0593 19.5145 29.4862 19.0876 29.4862 18.6126C29.4862 18.1387 29.0593 17.7111 28.5848 17.7111H26.7342V19.5145ZM28.6323 21.7914C29.1061 21.7914 29.5337 21.3645 29.5337 20.89C29.5337 20.4155 29.1062 19.9886 28.6323 19.9886H26.7342V21.7911H28.6323V21.7914Z" fill="white"/>
<path d="M23.0268 21.4593V22.3607H18.4719C17.0488 22.3607 15.8625 21.1747 15.8625 19.7514C15.8625 18.3286 17.0488 17.1421 18.4719 17.1421H23.0268V18.0913C21.9356 17.8539 20.8911 17.7116 20.3694 17.7116C19.2313 17.7116 18.3298 18.613 18.3298 19.7517C18.3298 20.8904 19.2313 21.7918 20.3694 21.7918C20.8911 21.7912 21.9356 21.6967 23.0268 21.4593Z" fill="white"/>
</svg>
