<svg width="40" height="40" viewBox="0 0 40 40" fill="none" xmlns="http://www.w3.org/2000/svg">
<path fill-rule="evenodd" clip-rule="evenodd" d="M0 4C0 1.79086 1.79086 0 4 0H36C38.2091 0 40 1.79086 40 4V36C40 38.2091 38.2091 40 36 40H4C1.79086 40 0 38.2091 0 36V4Z" fill="white"/>
<path d="M0.5 4C0.5 2.067 2.067 0.5 4 0.5H36C37.933 0.5 39.5 2.067 39.5 4V36C39.5 37.933 37.933 39.5 36 39.5H4C2.067 39.5 0.5 37.933 0.5 36V4Z" stroke="#E4E4E4" stroke-opacity="0.6"/>
<g clip-path="url(#clip0)">
<path d="M10.8645 11.0007H18.3385C19.3818 11.0007 20.0307 11.8511 19.7874 12.8979L16.3076 27.8376C16.0621 28.8807 15.0175 29.7319 13.9735 29.7319H6.50013C5.45828 29.7319 4.80792 28.8807 5.0513 27.8376L8.53246 12.8979C8.77585 11.8511 9.81989 11.0007 10.8645 11.0007Z" fill="#E21836"/>
<path d="M17.7165 11H26.3115C27.3546 11 26.8843 11.8504 26.6389 12.8972L23.1597 27.8369C22.9156 28.88 22.9918 29.7311 21.9464 29.7311H13.3515C12.3062 29.7311 11.6593 28.88 11.9048 27.8369L15.3838 12.8972C15.6308 11.8504 16.6727 11 17.7165 11Z" fill="#00447C"/>
<path d="M25.9706 11H33.4446C34.4894 11 35.1383 11.8504 34.8929 12.8972L31.4138 27.8369C31.1682 28.88 30.1229 29.7311 29.0783 29.7311H21.6077C20.5624 29.7311 19.914 28.88 20.1589 27.8369L23.6386 12.8972C23.882 11.8504 24.9253 11 25.9706 11Z" fill="#007B84"/>
<path d="M12.8163 15.7879C12.0477 15.7957 11.8207 15.7879 11.7482 15.7707C11.7203 15.9032 11.2017 18.2957 11.2002 18.2977C11.0885 18.7817 11.0073 19.1267 10.7313 19.3495C10.5746 19.4791 10.3917 19.5415 10.1797 19.5415C9.83884 19.5415 9.64027 19.3723 9.60693 19.0513L9.60055 18.9411C9.60055 18.9411 9.70439 18.2927 9.70439 18.2891C9.70439 18.2891 10.2487 16.1088 10.3462 15.8206C10.3513 15.8042 10.3527 15.7957 10.354 15.7879C9.2945 15.7971 9.10668 15.7879 9.09374 15.7707C9.08664 15.7942 9.06041 15.9294 9.06041 15.9294L8.50459 18.3867L8.45686 18.5952L8.3645 19.2768C8.3645 19.4791 8.40422 19.6441 8.48328 19.7837C8.7365 20.2262 9.45882 20.2925 9.86744 20.2925C10.3939 20.2925 10.8878 20.1806 11.2215 19.9764C11.8008 19.6341 11.9524 19.099 12.0876 18.6236L12.1503 18.3796C12.1503 18.3796 12.711 16.1152 12.8063 15.8206C12.8099 15.8042 12.8114 15.7957 12.8163 15.7879ZM14.7241 17.6146C14.589 17.6146 14.3419 17.6474 14.1201 17.7561C14.0395 17.7975 13.9634 17.8452 13.883 17.8928L13.9555 17.631L13.9158 17.5869C13.4453 17.6822 13.34 17.6949 12.9053 17.7561L12.8689 17.7804C12.8184 18.1988 12.7736 18.5134 12.5865 19.3359C12.5153 19.6391 12.4413 19.9451 12.3672 20.2475L12.3872 20.286C12.8326 20.2625 12.9678 20.2625 13.3549 20.2689L13.3863 20.2348C13.4354 19.9828 13.4418 19.9238 13.5508 19.4136C13.6019 19.1716 13.7087 18.64 13.7614 18.4508C13.8581 18.4059 13.9535 18.3619 14.0446 18.3619C14.2616 18.3619 14.2352 18.5511 14.2268 18.6266C14.2175 18.7532 14.1385 19.1667 14.0574 19.5218L14.0033 19.7509C13.9656 19.9202 13.9242 20.0847 13.8865 20.2525L13.9029 20.286C14.3419 20.2625 14.4758 20.2625 14.8508 20.2689L14.8948 20.2348C14.9626 19.8413 14.9825 19.736 15.1027 19.1631L15.1632 18.8998C15.2807 18.3846 15.3397 18.1234 15.2508 17.9106C15.1568 17.6722 14.9313 17.6146 14.7241 17.6146ZM16.8554 18.154C16.6221 18.1988 16.4732 18.2287 16.3253 18.248C16.1787 18.2715 16.0356 18.2928 15.8101 18.3241L15.7923 18.3403L15.7759 18.3533C15.7524 18.5212 15.736 18.6664 15.7048 18.8371C15.6784 19.0137 15.6378 19.2142 15.5717 19.5024C15.5205 19.723 15.494 19.7999 15.4649 19.8775C15.4365 19.9551 15.4051 20.0306 15.3476 20.2475L15.3611 20.2676L15.3724 20.286C15.5831 20.2759 15.721 20.2688 15.8628 20.2676C16.0043 20.2625 16.151 20.2676 16.378 20.2688L16.3978 20.2526L16.4191 20.2348C16.4519 20.0391 16.4568 19.9865 16.4769 19.891C16.4967 19.7886 16.531 19.6469 16.615 19.2683C16.6547 19.0905 16.6989 18.9133 16.7401 18.7318C16.7829 18.5511 16.8277 18.3731 16.8704 18.1953L16.864 18.1738L16.8554 18.154ZM16.8604 17.4267C16.6484 17.3016 16.2762 17.3413 16.0257 17.5142C15.7759 17.6836 15.7475 17.924 15.9588 18.0508C16.1672 18.1725 16.5409 18.1363 16.7892 17.9619C17.0384 17.7889 17.0695 17.5506 16.8604 17.4267ZM18.1428 20.3252C18.5718 20.3252 19.0116 20.207 19.3426 19.8561C19.5973 19.5715 19.7141 19.1482 19.7545 18.9738C19.8862 18.396 19.7837 18.1262 19.6549 17.9618C19.4592 17.7114 19.1134 17.631 18.7547 17.631C18.539 17.631 18.0253 17.6523 17.624 18.0223C17.3358 18.2892 17.2026 18.6514 17.1223 18.9986C17.0412 19.3524 16.9479 19.9893 17.5336 20.2263C17.7143 20.3039 17.9749 20.3252 18.1428 20.3252ZM18.1093 19.025C18.2082 18.5874 18.325 18.2202 18.623 18.2202C18.8566 18.2202 18.8735 18.4934 18.7697 18.9325C18.7511 19.0299 18.6658 19.3923 18.5505 19.5466C18.47 19.6604 18.3747 19.7295 18.2694 19.7295C18.2381 19.7295 18.0517 19.7295 18.0488 19.4528C18.0474 19.3161 18.0752 19.1766 18.1093 19.025ZM20.827 20.2689L20.8605 20.2348C20.908 19.9829 20.9159 19.9237 21.0212 19.4136C21.0738 19.1717 21.1828 18.6401 21.2339 18.4508C21.3309 18.4058 21.4247 18.3617 21.5187 18.3617C21.7342 18.3617 21.708 18.551 21.6994 18.6264C21.6916 18.7532 21.6125 19.1666 21.53 19.5216L21.4788 19.7508C21.4396 19.9202 21.397 20.0846 21.3593 20.2525L21.3757 20.286C21.8162 20.2625 21.945 20.2625 22.3221 20.2689L22.3676 20.2348C22.4337 19.8412 22.4516 19.7359 22.5755 19.1631L22.6345 18.8997C22.7526 18.3845 22.8123 18.1235 22.7249 17.9107C22.6281 17.6722 22.4011 17.6146 22.1969 17.6146C22.0616 17.6146 21.8133 17.6472 21.5926 17.7562C21.5138 17.7975 21.4347 17.8451 21.3571 17.8928L21.4247 17.631L21.3884 17.5868C20.9181 17.6822 20.8106 17.695 20.3765 17.7562L20.3431 17.7804C20.2905 18.1989 20.2477 18.5133 20.0606 19.336C19.9893 19.6391 19.9154 19.9452 19.8414 20.2476L19.8613 20.286C20.3074 20.2625 20.4406 20.2625 20.827 20.2689ZM24.0634 20.2859C24.0911 20.1508 24.2556 19.3496 24.257 19.3496C24.257 19.3496 24.3971 18.7617 24.4057 18.7404C24.4057 18.7404 24.4498 18.6792 24.4939 18.6549H24.5587C25.1706 18.6549 25.8616 18.6549 26.4032 18.2565C26.7718 17.9833 27.0237 17.5798 27.1361 17.0893C27.1653 16.9691 27.1868 16.8261 27.1868 16.6831C27.1868 16.4953 27.149 16.3095 27.0401 16.1643C26.7639 15.7779 26.2139 15.7708 25.5791 15.7679C25.5771 15.7679 25.2661 15.7708 25.2661 15.7708C24.4534 15.7808 24.1275 15.7779 23.9936 15.7615C23.9823 15.8207 23.961 15.926 23.961 15.926C23.961 15.926 23.6699 17.2752 23.6699 17.2773C23.6699 17.2773 22.9733 20.1459 22.9405 20.281C23.65 20.2725 23.941 20.2725 24.0634 20.2859ZM24.6028 17.8893C24.6028 17.8893 24.9123 16.5428 24.9109 16.5479L24.9209 16.4789L24.9252 16.4262L25.0489 16.439C25.0489 16.439 25.6873 16.4938 25.7022 16.4953C25.9542 16.5927 26.058 16.844 25.9855 17.1719C25.9194 17.4715 25.725 17.7235 25.4752 17.8452C25.2696 17.9483 25.0176 17.9569 24.758 17.9569H24.59L24.6028 17.8893ZM26.5299 19.05C26.4481 19.3986 26.3541 20.0355 26.9369 20.2625C27.1227 20.3416 27.2892 20.3651 27.4585 20.3565C27.6372 20.3468 27.8028 20.2572 27.9562 20.1282C27.9423 20.1813 27.9285 20.2343 27.9146 20.2875L27.941 20.3215C28.3602 20.3039 28.4903 20.3039 28.9444 20.3073L28.9856 20.276C29.0519 19.8861 29.1144 19.5076 29.2867 18.7618C29.3707 18.4045 29.4545 18.0507 29.5407 17.6949L29.5272 17.6558C29.0583 17.7427 28.933 17.7613 28.4819 17.8252L28.4477 17.8531C28.4431 17.8893 28.4384 17.9241 28.434 17.9589C28.3639 17.8456 28.2622 17.7489 28.1054 17.6886C27.9048 17.6097 27.4337 17.7113 27.0287 18.0801C26.7441 18.3433 26.6075 18.704 26.5299 19.05ZM27.5147 19.0713C27.6151 18.6415 27.7304 18.2779 28.0292 18.2779C28.2181 18.2779 28.3176 18.4522 28.2974 18.7495C28.2813 18.8237 28.264 18.9018 28.2434 18.9902C28.2136 19.1179 28.1811 19.2445 28.1496 19.3713C28.1176 19.458 28.0802 19.5398 28.0392 19.5943C27.9623 19.7032 27.7794 19.7708 27.6741 19.7708C27.6443 19.7708 27.4599 19.7708 27.4535 19.499C27.4521 19.3637 27.4799 19.2243 27.5147 19.0713ZM32.6576 17.6523L32.6214 17.6109C32.1574 17.7049 32.0734 17.7199 31.6471 17.7774L31.6158 17.8088C31.6143 17.8139 31.613 17.8217 31.6108 17.8288L31.6094 17.8217C31.292 18.5539 31.3013 18.3959 31.043 18.9723C31.0415 18.9461 31.0415 18.9297 31.0401 18.9018L30.9754 17.6523L30.9348 17.6109C30.4487 17.7049 30.4373 17.7199 29.9884 17.7774L29.9534 17.8088C29.9485 17.8237 29.9485 17.8401 29.9456 17.858L29.9485 17.8643C30.0046 18.1511 29.9911 18.0871 30.0474 18.5397C30.0737 18.7617 30.1086 18.9851 30.1349 19.2044C30.1791 19.5715 30.2039 19.7522 30.258 20.3124C29.9549 20.8126 29.8831 21.0019 29.5913 21.441L29.5933 21.4453L29.3878 21.7703C29.3643 21.8046 29.343 21.8281 29.3131 21.8381C29.2803 21.8543 29.2377 21.8572 29.1784 21.8572H29.0646L28.8953 22.4202L29.4759 22.4302C29.8168 22.4287 30.031 22.2693 30.1463 22.0551L30.5114 21.4295H30.5056L30.544 21.3854C30.7896 20.8567 32.6576 17.6523 32.6576 17.6523ZM26.5299 25.0454H26.2836L27.1952 22.0302H27.4976L27.5936 21.7196L27.6029 22.065C27.5916 22.2785 27.7596 22.4678 28.2008 22.4365H28.7111L28.8867 21.8559H28.6947C28.5843 21.8559 28.5331 21.828 28.5395 21.7682L28.5302 21.4168H27.5852V21.4187C27.2797 21.425 26.3674 21.448 26.1827 21.4972C25.9591 21.5547 25.7236 21.7242 25.7236 21.7242L25.8161 21.4132H24.9322L24.748 22.0302L23.8242 25.0915H23.645L23.4692 25.6679H25.2297L25.1707 25.8601H26.0382L26.0958 25.6679H26.3392L26.5299 25.0454ZM25.8076 22.6429C25.666 22.682 25.4026 22.8008 25.4026 22.8008L25.6369 22.0302H26.3392L26.1697 22.5917C26.1697 22.5917 25.9528 22.6044 25.8076 22.6429ZM25.8211 23.7437C25.8211 23.7437 25.6004 23.7714 25.4552 23.8042C25.3122 23.8476 25.0441 23.9842 25.0441 23.9842L25.286 23.1823H25.9919L25.8211 23.7437ZM25.4276 25.0525H24.7231L24.9273 24.3757H25.6296L25.4276 25.0525ZM27.1241 23.1823H28.1395L27.9936 23.6548H26.9647L26.8102 24.1715H27.7105L27.0288 25.1314C26.9811 25.2019 26.9383 25.2268 26.8907 25.2467C26.843 25.2709 26.7803 25.2993 26.7078 25.2993H26.458L26.2864 25.8652H26.9397C27.2793 25.8652 27.4799 25.7107 27.628 25.5079L28.0954 24.8681L28.1958 25.5177C28.2171 25.6394 28.3046 25.7107 28.3638 25.7384C28.4292 25.7712 28.4968 25.8274 28.5922 25.8358C28.6946 25.8402 28.7686 25.8437 28.8177 25.8437H29.1387L29.3315 25.2104H29.2049C29.1322 25.2104 29.007 25.1982 28.9857 25.1754C28.9644 25.1478 28.9644 25.1051 28.9529 25.0403L28.8511 24.3892H28.4341L28.617 24.1715H29.6439L29.8018 23.6548H28.8511L28.9992 23.1823H29.947L30.1228 22.5995H27.297L27.1241 23.1823ZM18.5476 25.1841L18.7847 24.3956H19.7587L19.9367 23.8092H18.9617L19.1106 23.3239H20.0633L20.2399 22.756H17.8559L17.683 23.3239H18.2247L18.0802 23.8092H17.5371L17.3571 24.4056H17.8986L17.5827 25.4488C17.54 25.5868 17.6027 25.6395 17.6424 25.7036C17.683 25.7661 17.7242 25.8075 17.8168 25.831C17.9122 25.8523 17.9776 25.865 18.0665 25.865H19.1647L19.3603 25.2154L18.8736 25.2823C18.7796 25.2823 18.5192 25.271 18.5476 25.1841ZM18.6594 21.4096L18.4125 21.8558C18.3597 21.9532 18.3122 22.0137 18.2693 22.0416C18.2316 22.0651 18.1569 22.0749 18.0487 22.0749H17.9199L17.7478 22.6457H18.1755C18.3812 22.6457 18.5391 22.5703 18.6146 22.5326C18.6956 22.4892 18.7169 22.514 18.7796 22.4535L18.9241 22.3283H20.2598L20.437 21.7341H19.4593L19.63 21.4096H18.6594ZM20.6313 25.1955C20.6085 25.1627 20.6249 25.105 20.6597 24.9847L21.0248 23.7764H22.3235C22.5128 23.7737 22.6494 23.7715 22.7383 23.7651C22.8338 23.7551 22.9376 23.721 23.0508 23.6598C23.1675 23.5957 23.2273 23.5281 23.2777 23.4505C23.334 23.373 23.4244 23.2036 23.502 22.9424L23.9609 21.4132L22.6132 21.4211C22.6132 21.4211 22.1982 21.4823 22.0155 21.5499C21.8311 21.6253 21.5677 21.8359 21.5677 21.8359L21.6894 21.4167H20.8568L19.6913 25.2822C19.6499 25.4323 19.6222 25.5413 19.6159 25.6067C19.6137 25.6772 19.7048 25.747 19.7638 25.7996C19.8336 25.8523 19.9367 25.8437 20.0356 25.8523C20.1396 25.8601 20.2875 25.865 20.4918 25.865H21.1315L21.3279 25.2019L20.7552 25.256C20.694 25.256 20.6497 25.2232 20.6313 25.1955ZM21.2603 22.9602H22.6245L22.5377 23.232C22.5255 23.2384 22.4964 23.2186 22.3576 23.235H21.1764L21.2603 22.9602ZM21.5336 22.0486H22.9092L22.8103 22.376C22.8103 22.376 22.1619 22.3696 22.0581 22.3888C21.6012 22.4678 21.3343 22.7119 21.3343 22.7119L21.5336 22.0486ZM22.5683 24.1422C22.557 24.1829 22.5391 24.2076 22.5142 24.2262C22.4865 24.2441 22.4417 24.2505 22.3748 24.2505H22.1804L22.1919 23.9194H21.3834L21.3506 25.5377C21.3494 25.6545 21.3607 25.7221 21.4461 25.7762C21.5315 25.8437 21.7948 25.8523 22.1491 25.8523H22.6557L22.8386 25.2466L22.3976 25.2708L22.2509 25.2794C22.2309 25.2708 22.2118 25.263 22.1905 25.2417C22.1719 25.2233 22.1405 25.2346 22.1456 25.1178L22.1491 24.703L22.6116 24.6838C22.8614 24.6838 22.9682 24.6026 23.0592 24.5252C23.1461 24.451 23.1746 24.3658 23.2073 24.2505L23.285 23.8832H22.6493L22.5683 24.1422Z" fill="#FEFEFE"/>
</g>
<defs>
<clipPath id="clip0">
<rect x="5" y="11" width="30" height="18.75" fill="white"/>
</clipPath>
</defs>
</svg>
