<svg width="40" height="40" viewBox="0 0 40 40" fill="none" xmlns="http://www.w3.org/2000/svg">
<path fill-rule="evenodd" clip-rule="evenodd" d="M0 4C0 1.79086 1.79086 0 4 0H36C38.2091 0 40 1.79086 40 4V36C40 38.2091 38.2091 40 36 40H4C1.79086 40 0 38.2091 0 36V4Z" fill="white"/>
<path d="M0.5 4C0.5 2.067 2.067 0.5 4 0.5H36C37.933 0.5 39.5 2.067 39.5 4V36C39.5 37.933 37.933 39.5 36 39.5H4C2.067 39.5 0.5 37.933 0.5 36V4Z" stroke="#E4E4E4" stroke-opacity="0.6"/>
<path d="M12.5236 14.5518L9.9221 22.3106C9.9221 22.3106 9.26134 19.0285 9.19595 18.6164C7.71492 15.2373 5.52954 15.4255 5.52954 15.4255L8.10524 25.449V25.447H11.2367L15.5669 14.5518H12.5236Z" fill="#1565C0"/>
<path d="M15.0038 25.449H17.848L19.5677 14.5518H16.6879L15.0038 25.449Z" fill="#1565C0"/>
<path d="M35.1327 14.5518H32.14L27.474 25.449H30.2993L30.8819 23.8926H34.4442L34.7474 25.449H37.336L35.1327 14.5518ZM31.6704 21.8113L33.2188 17.6931L34.0292 21.8113H31.6704Z" fill="#1565C0"/>
<path d="M23.6024 17.7278C23.6024 17.1275 24.0958 16.6807 25.5104 16.6807C26.4298 16.6807 27.4828 17.3484 27.4828 17.3484L27.9445 15.061C27.9445 15.061 26.5992 14.5508 25.2786 14.5508C22.2878 14.5508 20.7454 15.9813 20.7454 17.7922C20.7454 21.0673 24.6872 20.6185 24.6872 22.3007C24.6872 22.589 24.4584 23.2557 22.8169 23.2557C21.1704 23.2557 20.0836 22.6524 20.0836 22.6524L19.5933 24.8476C19.5933 24.8476 20.6463 25.448 22.6811 25.448C24.7209 25.448 27.5502 23.9224 27.5502 21.731C27.5502 19.0949 23.6024 18.9047 23.6024 17.7278Z" fill="#1565C0"/>
<path d="M9.57772 20.4413L8.62075 15.7376C8.62075 15.7376 8.18783 14.7183 7.06245 14.7183C5.93706 14.7183 2.66394 14.7183 2.66394 14.7183C2.66394 14.7183 8.27204 16.3746 9.57772 20.4413Z" fill="#FFC107"/>
</svg>
