<svg width="16" height="16" viewBox="0 0 16 16" fill="none" xmlns="http://www.w3.org/2000/svg">
<path d="M14.4442 0.266926C14.8001 -0.0889753 15.3772 -0.0889756 15.7331 0.266926C16.089 0.622828 16.089 1.19986 15.7331 1.55576L1.5559 15.7329C1.2 16.0888 0.622964 16.0888 0.267063 15.7329C-0.0888392 15.377 -0.0888391 14.8 0.267063 14.4441L14.4442 0.266926Z" fill="#222638"/>
<path d="M15.7329 14.4441C16.0888 14.8 16.0888 15.3771 15.7329 15.733C15.377 16.0889 14.8 16.0889 14.4441 15.733L0.266926 1.55578C-0.0889753 1.19987 -0.0889756 0.622844 0.266926 0.266942C0.622828 -0.08896 1.19986 -0.0889599 1.55576 0.266942L15.7329 14.4441Z" fill="#222638"/>
</svg>
